<?xml version="1.0" encoding="iso-8859-1"?>
<!-- Uploaded to: SVG Repo, www.svgrepo.com, Generator: SVG Repo Mixer Tools -->
<svg height="800px" width="800px" version="1.1" id="Layer_1" xmlns="http://www.w3.org/2000/svg" xmlns:xlink="http://www.w3.org/1999/xlink" 
	 viewBox="0 0 512 512" xml:space="preserve">
<path style="fill:#C17C3E;" d="M17.655,194.207v70.621c0,19.421,15.89,35.31,35.31,35.31h88.276
	c28.248,0,49.434,24.717,45.021,52.083l-9.71,59.145c-5.297,33.545,8.828,67.972,37.076,87.393c25.6,17.655,60.028,17.655,84.745,0
	c28.248-19.421,42.372-53.848,37.076-87.393l-9.71-59.145c-4.414-27.366,17.655-52.083,45.021-52.083h88.276
	c19.421,0,35.31-15.89,35.31-35.31v-70.621H17.655z"/>
<path style="fill:#9E5A23;" d="M282.483,432.552c0-15.007-11.476-26.483-26.483-26.483s-26.483,11.476-26.483,26.483
	s11.476,26.483,26.483,26.483S282.483,447.559,282.483,432.552"/>
<path style="fill:#ECE8D8;" d="M105.931,114.759V61.793c0,15.007-12.359,27.366-28.248,26.483
	c-14.124-0.883-24.717-13.241-24.717-28.248V0H35.31C25.6,0,17.655,7.945,17.655,17.655v97.103H105.931z"/>
<path style="fill:#368CD6;" d="M158.897,0H52.966v61.793c0,15.007,11.476,26.483,26.483,26.483s26.483-11.476,26.483-26.483v70.621
	c0,15.007,11.476,26.483,26.483,26.483s26.483-11.476,26.483-26.483v-92.69c0,12.359,9.71,22.069,22.069,22.069
	s22.069-9.71,22.069-22.069V0H158.897z"/>
<path style="fill:#ECE8D8;" d="M203.034,0v38.841c0,11.476-7.945,22.069-19.421,22.952c-13.241,0.883-24.717-8.828-24.717-22.069
	v75.034c0,0,0.883-1.766,0,0h335.448V17.655C494.345,7.945,486.4,0,476.69,0H203.034z"/>
<g>
	<path style="fill:#9E5A23;" d="M158.897,114.759v17.655c0,15.007-11.476,26.483-26.483,26.483s-26.483-11.476-26.483-26.483
		v-17.655H8.828v79.448h494.345v-79.448H158.897z"/>
	<path style="fill:#9E5A23;" d="M18.538,273.655h34.428c5.297,0,8.828-3.531,8.828-8.828c0-5.297-3.531-8.828-8.828-8.828h-35.31
		v8.828C17.655,267.476,18.538,271.007,18.538,273.655"/>
	<path style="fill:#9E5A23;" d="M70.621,238.345c5.297,0,8.828-3.531,8.828-8.828s-3.531-8.828-8.828-8.828H17.655v17.655H70.621z"
		/>
</g>
</svg>